<svg width="48" height="49" viewBox="0 0 48 49" fill="none" xmlns="http://www.w3.org/2000/svg">
<rect y="0.904297" width="48" height="48" rx="24" fill="#EF4F24"/>
<g clip-path="url(#clip0_377_35561)">
<path d="M25.8217 28.0118C25.2582 28.4029 24.5948 28.6252 23.9094 28.6524V29.5034H23.1731V28.6524C21.4903 28.5281 20.4385 27.6198 20.4385 25.9847H22.4464C22.4401 26.2031 22.5087 26.4171 22.6409 26.5911C22.7732 26.7651 22.961 26.8885 23.1731 26.9409V25.564L22.762 25.4779C22.2006 25.3941 21.6704 25.1669 21.2225 24.8182C21.0157 24.6277 20.8548 24.3928 20.7521 24.1311C20.6494 23.8693 20.6076 23.5877 20.6297 23.3074C20.6297 21.9114 21.6433 21.1751 23.1731 21.0891V20.2285H23.9094V21.1082C25.4393 21.2325 26.405 22.0644 26.405 23.5178H24.4066C24.4345 23.3518 24.3959 23.1816 24.2993 23.0438C24.2027 22.906 24.0558 22.8118 23.8903 22.7815V24.101H24.1293C25.946 24.4357 26.5676 25.1241 26.5676 26.2715C26.5951 26.6005 26.5415 26.9312 26.4115 27.2346C26.2814 27.538 26.0789 27.8049 25.8217 28.0118ZM23.1445 23.948V22.7719C22.9984 22.797 22.8662 22.8734 22.7715 22.9873C22.6768 23.1013 22.626 23.2453 22.6281 23.3935C22.6256 23.4646 22.6372 23.5355 22.6624 23.602C22.6875 23.6686 22.7257 23.7295 22.7747 23.7811C22.8237 23.8327 22.8824 23.8741 22.9475 23.9028C23.0127 23.9314 23.0829 23.9468 23.154 23.948H23.1445ZM23.9094 26.9887C24.0827 26.9812 24.2461 26.9058 24.3642 26.7787C24.4823 26.6517 24.5457 26.4832 24.5405 26.3098C24.5405 25.9847 24.3779 25.803 23.9094 25.7074V26.9887Z" fill="white"/>
<path d="M36.435 18.5362L35.125 22.0263L34.972 22.447L34.8668 22.7147C34.7029 23.0412 34.4489 23.3139 34.1348 23.5005C33.8207 23.6871 33.4598 23.7799 33.0947 23.7678C32.7295 23.7558 32.3755 23.6394 32.0745 23.4324C31.7734 23.2254 31.5379 22.9366 31.3959 22.6C31.3774 22.5078 31.3485 22.418 31.3099 22.3322C31.136 21.7563 30.8987 21.2015 30.6023 20.6781C29.6687 19.1191 28.2461 17.9123 26.5558 17.2454C24.8654 16.5785 23.002 16.489 21.2555 16.9906C19.509 17.4923 17.9772 18.5571 16.8984 20.0193C15.8196 21.4816 15.2543 23.2594 15.2904 25.0762C15.3265 26.893 15.9619 28.6469 17.0979 30.0652C18.2339 31.4835 19.8068 32.4866 21.5718 32.9185C23.3369 33.3505 25.1953 33.187 26.8578 32.4535C28.5203 31.7201 29.8939 30.4577 30.7648 28.8629C30.8413 28.729 30.9083 28.5856 30.9752 28.4422C31.2358 28.0821 31.6137 27.8239 32.0439 27.7122C32.4741 27.6005 32.9299 27.6421 33.3327 27.83C33.7356 28.0178 34.0604 28.3402 34.2514 28.7416C34.4424 29.143 34.4876 29.5983 34.3792 30.0294C34.274 30.2398 34.1784 30.4502 34.0541 30.6605C32.7991 32.9781 30.8159 34.8181 28.4109 35.8963C26.006 36.9744 23.3129 37.2309 20.7477 36.6259C18.1824 36.021 15.8877 34.5884 14.2178 32.5493C12.548 30.5102 11.5959 27.978 11.5085 25.3439C11.4212 22.7097 12.2035 20.1201 13.7347 17.9749C15.2659 15.8296 17.4607 14.2482 19.9802 13.4747C22.4998 12.7012 25.2039 12.7787 27.675 13.6953C30.1461 14.6118 32.2467 16.3164 33.6525 18.5458L33.9967 17.5896C34.0564 17.4295 34.147 17.2827 34.2633 17.1576C34.3797 17.0326 34.5196 16.9316 34.6749 16.8606C34.8303 16.7896 34.9982 16.7498 35.1689 16.7437C35.3397 16.7375 35.5099 16.765 35.67 16.8247C35.8301 16.8843 35.9769 16.9749 36.102 17.0913C36.2271 17.2076 36.328 17.3475 36.399 17.5029C36.4701 17.6583 36.5098 17.8261 36.516 17.9969C36.5221 18.1676 36.4946 18.3379 36.435 18.498V18.5362Z" fill="white"/>
</g>
<defs>
<clipPath id="clip0_377_35561">
<rect width="25.0422" height="24" fill="white" transform="translate(11.479 12.9043)"/>
</clipPath>
</defs>
</svg>
