<svg width="48" height="49" viewBox="0 0 48 49" fill="none" xmlns="http://www.w3.org/2000/svg">
<rect y="0.904297" width="48" height="48" rx="24" fill="#EF4F24"/>
<g clip-path="url(#clip0_377_35524)">
<path d="M18.0287 25.4014H19.2048C19.1924 25.4926 19.2012 25.5855 19.2303 25.6728C19.2594 25.7601 19.3081 25.8396 19.3728 25.9052C19.4374 25.9707 19.5162 26.0206 19.6031 26.051C19.69 26.0813 19.7827 26.0913 19.8741 26.0803C20.1992 26.0803 20.4861 25.9464 20.4861 25.6022C20.4861 25.258 20.2661 25.105 19.8072 25.105H19.4821V24.2253H19.7498C19.9328 24.2498 20.1181 24.2017 20.2661 24.0914C20.3414 24.0075 20.3824 23.8982 20.3809 23.7855C20.3828 23.723 20.3712 23.6608 20.3467 23.6034C20.3222 23.5459 20.2854 23.4944 20.239 23.4525C20.1926 23.4107 20.1376 23.3794 20.0779 23.361C20.0182 23.3425 19.9552 23.3373 19.8932 23.3456C19.8166 23.3422 19.7401 23.3556 19.6692 23.3849C19.5982 23.4141 19.5346 23.4586 19.4826 23.5151C19.4307 23.5716 19.3917 23.6387 19.3685 23.7119C19.3453 23.785 19.3384 23.8624 19.3482 23.9385H18.1721C18.1516 23.7102 18.1826 23.4803 18.2628 23.2657C18.3431 23.051 18.4705 22.8571 18.6357 22.6983C18.8009 22.5396 18.9997 22.4199 19.2174 22.3482C19.435 22.2766 19.666 22.2547 19.8932 22.2843C20.9068 22.2843 21.5665 22.7815 21.5665 23.556C21.5905 23.791 21.5265 24.0266 21.387 24.2173C21.2475 24.408 21.0424 24.5403 20.8112 24.5887C21.0809 24.6107 21.3314 24.7367 21.5099 24.9401C21.6883 25.1436 21.7807 25.4084 21.7673 25.6787C21.7673 26.5106 21.0407 27.1321 19.855 27.1321C19.6145 27.172 19.368 27.1556 19.135 27.0843C18.9019 27.0129 18.6885 26.8885 18.5115 26.7208C18.3346 26.5532 18.1989 26.3468 18.1151 26.1178C18.0314 25.8889 18.0018 25.6437 18.0287 25.4014Z" fill="white"/>
<path d="M22.1401 24.6558C22.1401 23.145 22.7999 22.2844 24.0525 22.2844C24.2597 22.2573 24.4703 22.2746 24.6703 22.3351C24.8703 22.3956 25.0551 22.498 25.2125 22.6355C25.3699 22.773 25.4962 22.9424 25.583 23.1324C25.6699 23.3225 25.7153 23.5289 25.7162 23.7378H24.6549C24.649 23.6669 24.6288 23.5978 24.5955 23.5349C24.5621 23.472 24.5163 23.4165 24.4609 23.3718C24.4055 23.3271 24.3415 23.2941 24.273 23.2748C24.2044 23.2556 24.1327 23.2504 24.062 23.2597C23.9359 23.2481 23.8091 23.2747 23.6983 23.3361C23.5874 23.3975 23.4976 23.4908 23.4405 23.604C23.3299 23.8297 23.2773 24.0795 23.2875 24.3307C23.5427 24.0799 23.886 23.9392 24.2437 23.9386C24.4549 23.9229 24.667 23.953 24.8656 24.0267C25.0641 24.1004 25.2444 24.2161 25.3942 24.3659C25.5439 24.5156 25.6596 24.6959 25.7334 24.8945C25.8071 25.093 25.8371 25.3051 25.8214 25.5163C25.8262 25.7465 25.7811 25.9751 25.6893 26.1863C25.5974 26.3974 25.461 26.5862 25.2893 26.7397C25.1177 26.8932 24.9148 27.0078 24.6947 27.0755C24.4746 27.1433 24.2425 27.1626 24.0142 27.1323C23.0294 27.1323 22.1401 26.4629 22.1401 24.6558ZM24.4541 25.9944C24.5269 25.9353 24.5835 25.8586 24.6186 25.7717C24.6537 25.6847 24.6662 25.5903 24.6549 25.4972C24.6653 25.4046 24.6513 25.311 24.6144 25.2255C24.5775 25.1399 24.519 25.0655 24.4445 25.0095C24.3173 24.9238 24.1677 24.8772 24.0142 24.8757C23.867 24.8787 23.7239 24.9253 23.6031 25.0095C23.5318 25.0678 23.4761 25.1428 23.441 25.228C23.406 25.3131 23.3926 25.4056 23.4023 25.4972C23.3901 25.5903 23.4021 25.6851 23.4373 25.7722C23.4725 25.8593 23.5296 25.9359 23.6031 25.9944C23.7269 26.0799 23.8734 26.1265 24.0238 26.1283C24.1767 26.1236 24.3255 26.0773 24.4541 25.9944Z" fill="white"/>
<path d="M30.0095 25.4108C30.0213 25.6525 29.9799 25.8938 29.8883 26.1178C29.7967 26.3417 29.6571 26.5428 29.4793 26.707C29.3015 26.8711 29.0899 26.9942 28.8593 27.0676C28.6288 27.141 28.3849 27.163 28.145 27.132C27.9152 27.164 27.6811 27.1456 27.4592 27.078C27.2372 27.0103 27.0326 26.8952 26.8597 26.7404C26.6868 26.5857 26.5497 26.3952 26.4579 26.1821C26.3661 25.969 26.3219 25.7384 26.3282 25.5065H27.4565C27.4491 25.5997 27.4654 25.6933 27.5038 25.7785C27.5423 25.8638 27.6016 25.938 27.6765 25.9941C27.805 26.077 27.9538 26.1233 28.1067 26.128C28.2689 26.1253 28.426 26.0718 28.5561 25.975C28.6361 25.9065 28.6974 25.8188 28.7342 25.7201C28.771 25.6214 28.7821 25.515 28.7665 25.4108C28.7665 25.124 28.6996 24.9232 28.5561 24.8371C28.4247 24.754 28.2718 24.7108 28.1163 24.7128C27.988 24.7028 27.8599 24.7334 27.75 24.8003C27.6402 24.8673 27.5542 24.9671 27.5043 25.0857H26.3761L26.7776 22.3511H29.541V23.3072H27.6286L27.533 24.0339C27.6639 23.9217 27.8159 23.8367 27.9801 23.7842C28.1444 23.7316 28.3175 23.7125 28.4892 23.728C28.7028 23.7282 28.9141 23.7732 29.1093 23.8601C29.3045 23.947 29.4793 24.0737 29.6225 24.2323C29.7658 24.3908 29.8742 24.5776 29.9408 24.7806C30.0075 24.9836 30.0309 25.1983 30.0095 25.4108Z" fill="white"/>
<path d="M36.435 18.5362L35.125 22.0263L34.972 22.447L34.8668 22.7147C34.7029 23.0412 34.4489 23.3139 34.1348 23.5005C33.8207 23.6871 33.4598 23.7799 33.0947 23.7678C32.7295 23.7558 32.3755 23.6394 32.0745 23.4324C31.7734 23.2254 31.5379 22.9366 31.3959 22.6C31.3774 22.5078 31.3485 22.418 31.3099 22.3322C31.136 21.7563 30.8987 21.2015 30.6023 20.6781C29.6687 19.1191 28.2461 17.9123 26.5558 17.2454C24.8654 16.5785 23.002 16.489 21.2555 16.9906C19.509 17.4923 17.9772 18.5571 16.8984 20.0193C15.8196 21.4816 15.2543 23.2594 15.2904 25.0762C15.3265 26.893 15.9619 28.6469 17.0979 30.0652C18.2339 31.4835 19.8068 32.4866 21.5718 32.9185C23.3369 33.3505 25.1953 33.187 26.8578 32.4535C28.5203 31.7201 29.8939 30.4577 30.7648 28.8629C30.8413 28.729 30.9083 28.5856 30.9752 28.4422C31.2358 28.0821 31.6137 27.8239 32.0439 27.7122C32.4741 27.6005 32.9299 27.6421 33.3327 27.83C33.7356 28.0178 34.0604 28.3402 34.2514 28.7416C34.4424 29.143 34.4876 29.5983 34.3792 30.0294C34.274 30.2398 34.1784 30.4502 34.0541 30.6605C32.7991 32.9781 30.8159 34.8181 28.4109 35.8963C26.006 36.9744 23.3129 37.2309 20.7477 36.6259C18.1824 36.021 15.8877 34.5884 14.2178 32.5493C12.548 30.5102 11.5959 27.978 11.5085 25.3439C11.4212 22.7097 12.2035 20.1201 13.7347 17.9749C15.2659 15.8296 17.4607 14.2482 19.9802 13.4747C22.4998 12.7012 25.2039 12.7787 27.675 13.6953C30.1461 14.6118 32.2467 16.3164 33.6525 18.5458L33.9967 17.5896C34.0564 17.4295 34.147 17.2827 34.2633 17.1576C34.3797 17.0326 34.5196 16.9316 34.6749 16.8606C34.8303 16.7896 34.9982 16.7498 35.1689 16.7437C35.3397 16.7375 35.5099 16.765 35.67 16.8247C35.8301 16.8843 35.9769 16.9749 36.102 17.0913C36.2271 17.2076 36.328 17.3475 36.399 17.5029C36.4701 17.6583 36.5098 17.8261 36.516 17.9969C36.5221 18.1676 36.4946 18.3379 36.435 18.498V18.5362Z" fill="white"/>
</g>
<defs>
<clipPath id="clip0_377_35524">
<rect width="25.0422" height="24" fill="white" transform="translate(11.479 12.9043)"/>
</clipPath>
</defs>
</svg>
