<svg width="48" height="49" viewBox="0 0 48 49" fill="none" xmlns="http://www.w3.org/2000/svg">
<rect y="0.904297" width="48" height="48" rx="24" fill="#EF4F24"/>
<path d="M34.059 16.8938H33.9422C30.5378 16.8669 27.2624 15.5875 24.7412 13.2997L24.5075 13.0661C24.3598 12.9629 24.1845 12.9066 24.0044 12.9043C23.8181 12.9029 23.636 12.9594 23.4832 13.0661C23.4099 13.1484 23.3319 13.2264 23.2496 13.2997C22.0006 14.5127 19.1073 16.6512 14.0216 16.8849H13.9407C13.7167 16.9051 13.5084 17.0086 13.357 17.175C13.2056 17.3414 13.1221 17.5585 13.1231 17.7834V17.9361C13.177 22.0874 14.0665 36.9043 24.0044 36.9043C33.9422 36.9043 34.7868 22.0874 34.8767 17.9361V17.8193C34.8708 17.5936 34.7856 17.3772 34.6361 17.2079C34.4866 17.0387 34.2823 16.9275 34.059 16.8938ZM31.2106 20.3173C31.2106 23.0668 30.5817 32.8968 24.0223 32.8968C17.463 32.8968 16.834 23.0758 16.834 20.3173V20.2274C16.8386 20.0763 16.8959 19.9316 16.996 19.8183C17.0961 19.7051 17.2327 19.6305 17.3821 19.6074H17.454C19.6946 19.5791 21.8467 18.7285 23.5012 17.2173L23.6629 17.0646C23.7618 16.992 23.8818 16.9541 24.0044 16.9567C24.124 16.9554 24.2407 16.9933 24.3368 17.0646L24.4896 17.2173C26.1619 18.7332 28.3336 19.5807 30.5907 19.5984H30.6625C30.8127 19.6198 30.9503 19.6939 31.0508 19.8075C31.1512 19.9211 31.2079 20.0668 31.2106 20.2184V20.3173Z" fill="white"/>
<path d="M16.0346 12.9043C16.0301 12.9521 16.0301 13.0002 16.0346 13.0481C16.0307 13.0182 16.0307 12.988 16.0346 12.9582C16.0304 12.9405 16.0304 12.922 16.0346 12.9043V12.9043Z" fill="white"/>
<path d="M28.7393 23.0845L28.2361 23.7135L24.642 28.2062C24.4516 28.3869 24.1991 28.4877 23.9366 28.4877C23.6741 28.4877 23.4216 28.3869 23.2313 28.2062L19.9965 25.2679C19.834 25.0766 19.7496 24.831 19.7602 24.5801C19.7708 24.3293 19.8756 24.0916 20.0537 23.9147C20.2318 23.7377 20.4701 23.6344 20.721 23.6254C20.9719 23.6165 21.217 23.7024 21.4073 23.8662L23.8243 26.0586L27.3196 21.7187C27.4115 21.6263 27.5207 21.553 27.641 21.503C27.7613 21.453 27.8902 21.4272 28.0205 21.4272C28.1508 21.4272 28.2797 21.453 28.4 21.503C28.5203 21.553 28.6295 21.6263 28.7214 21.7187C28.8956 21.9024 28.9942 22.1449 28.9975 22.3981C29.0009 22.6512 28.9087 22.8963 28.7393 23.0845Z" fill="white"/>
</svg>
