<svg width="48" height="49" viewBox="0 0 48 49" fill="none" xmlns="http://www.w3.org/2000/svg">
<rect y="0.904297" width="48" height="48" rx="24" fill="#EF4F24"/>
<g clip-path="url(#clip0_377_35473)">
<path d="M22.3348 15.4242H25.6683C25.9963 15.415 26.3079 15.2782 26.5366 15.0429C26.7654 14.8077 26.8934 14.4924 26.8934 14.1643C26.8934 13.8361 26.7654 13.5209 26.5366 13.2856C26.3079 13.0503 25.9963 12.9135 25.6683 12.9043H22.3348C22.1664 12.8996 21.9987 12.9287 21.8418 12.9899C21.6848 13.0511 21.5416 13.1431 21.4208 13.2606C21.3 13.378 21.204 13.5185 21.1384 13.6738C21.0728 13.829 21.0391 13.9958 21.0391 14.1643C21.0391 14.3328 21.0728 14.4995 21.1384 14.6548C21.204 14.81 21.3 14.9505 21.4208 15.0679C21.5416 15.1854 21.6848 15.2774 21.8418 15.3386C21.9987 15.3998 22.1664 15.4289 22.3348 15.4242Z" fill="white"/>
<path d="M20.5178 24.9546C20.435 24.9548 20.3542 24.9795 20.2855 25.0257C20.2168 25.0718 20.1634 25.1373 20.1319 25.2139C20.1005 25.2904 20.0925 25.3746 20.1089 25.4557C20.1253 25.5368 20.1654 25.6112 20.2241 25.6695C20.2828 25.7278 20.3575 25.7674 20.4388 25.7832C20.52 25.799 20.6041 25.7904 20.6804 25.7584C20.7567 25.7264 20.8218 25.6725 20.8675 25.6035C20.9131 25.5345 20.9373 25.4535 20.9369 25.3708C20.9368 25.3159 20.9258 25.2616 20.9047 25.211C20.8835 25.1603 20.8526 25.1144 20.8137 25.0757C20.7747 25.0371 20.7286 25.0065 20.6778 24.9857C20.627 24.9649 20.5726 24.9543 20.5178 24.9546Z" fill="white"/>
<path d="M21.6857 29.877H21.3013V30.523H21.77V30.9689H21.3013V31.5635H21.6857C22.2278 31.5635 22.427 31.3177 22.427 30.7172C22.427 30.1168 22.2268 29.877 21.6857 29.877Z" fill="white"/>
<path d="M22.7642 19.7494C22.7642 19.4987 22.6176 19.353 22.3104 19.353H21.8149V20.1458H22.3104C22.6176 20.1448 22.7642 19.9951 22.7642 19.7494Z" fill="white"/>
<path d="M24.5852 29.8379C24.1502 29.8379 23.8916 30.1798 23.8916 30.7218C23.8916 31.2638 24.1492 31.6136 24.5852 31.6136C25.0212 31.6136 25.2789 31.2668 25.2789 30.7218C25.2789 30.1768 25.0193 29.8379 24.5852 29.8379Z" fill="white"/>
<path d="M28.9592 16.186H19.05C18.7649 16.1855 18.4824 16.2412 18.2188 16.3499C17.9552 16.4586 17.7156 16.6182 17.5137 16.8195C17.3118 17.0209 17.1515 17.2601 17.0421 17.5234C16.9327 17.7867 16.8762 18.069 16.876 18.3542V32.6323C16.8765 33.1632 17.0718 33.6755 17.4248 34.072C17.7779 34.4685 18.2641 34.7217 18.7914 34.7836V34.8034C18.8034 35.3541 19.0305 35.8782 19.4242 36.2634C19.8179 36.6487 20.3468 36.8644 20.8976 36.8644C21.4484 36.8644 21.9773 36.6487 22.371 36.2634C22.7647 35.8782 22.9919 35.3541 23.0038 34.8034H25.0778C25.0897 35.3541 25.3169 35.8782 25.7106 36.2634C26.1043 36.6487 26.6332 36.8644 27.184 36.8644C27.7348 36.8644 28.2637 36.6487 28.6574 36.2634C29.0511 35.8782 29.2782 35.3541 29.2902 34.8034V34.7746C29.8012 34.697 30.2674 34.4386 30.604 34.0464C30.9406 33.6541 31.1252 33.1541 31.1244 32.6372V18.3542C31.1246 17.7796 30.8967 17.2284 30.4907 16.8218C30.0847 16.4153 29.5338 16.1866 28.9592 16.186ZM24.9133 18.8149C25.6862 18.8149 26.2015 19.3718 26.2015 20.1953C26.2015 21.0187 25.6902 21.5826 24.9133 21.5826C24.1364 21.5826 23.6251 21.0217 23.6251 20.1953C23.6251 19.3689 24.1404 18.8149 24.9133 18.8149ZM25.2215 22.1097C25.2236 22.1711 25.2074 22.2317 25.1749 22.2838C25.1424 22.3359 25.0951 22.3771 25.039 22.4021C24.9829 22.4271 24.9206 22.4348 24.8601 22.4242C24.7997 22.4135 24.7437 22.3851 24.6995 22.3424C24.6553 22.2998 24.6249 22.2449 24.6121 22.1849C24.5993 22.1248 24.6047 22.0623 24.6277 22.0054C24.6507 21.9484 24.6901 21.8996 24.741 21.8653C24.7919 21.8309 24.8519 21.8125 24.9133 21.8125C24.9933 21.8122 25.0702 21.843 25.1277 21.8986C25.1853 21.9541 25.2189 22.0298 25.2215 22.1097ZM21.241 18.8496H22.326C23.0137 18.8496 23.3516 19.1955 23.3516 19.7494C23.3516 20.1457 23.1792 20.4331 22.8135 20.5679L23.3794 21.541H22.8135L22.3022 20.6491H21.8177V21.541H21.241V18.8496ZM18.8192 19.3451V18.8496H20.9566V19.3451H20.1757V21.541H19.599V19.3451H18.8192ZM21.7434 32.0675H20.7247V30.9685H20.47V30.5226H20.7247V29.3761H21.7434C22.5777 29.3761 23.0197 29.8488 23.0197 30.7218C23.0197 31.5948 22.5777 32.0675 21.7434 32.0675ZM24.5853 32.1061C23.8124 32.1061 23.2971 31.5452 23.2971 30.7188C23.2971 29.8924 23.8084 29.3385 24.5853 29.3385C24.6926 29.3381 24.7996 29.3498 24.9044 29.3732C25.169 29.3732 25.2581 29.2582 25.269 28.9768H25.6882C25.6803 29.2691 25.596 29.4653 25.3503 29.5713C25.6763 29.8102 25.8685 30.2135 25.8685 30.7168C25.8685 31.5452 25.3572 32.1061 24.5853 32.1061ZM24.0046 28.5963H24.5199L24.7964 29.1116H24.4268L24.0046 28.5963ZM26.7881 32.0645H26.2114V29.3761H26.7851L26.7881 32.0645ZM26.689 27.3081C26.346 27.3083 26.009 27.217 25.7129 27.0437C25.4169 26.8704 25.1723 26.6213 25.0045 26.3221H20.5424C20.4174 26.3226 20.2936 26.2984 20.1781 26.2509C20.0626 26.2033 19.9576 26.1333 19.8692 26.045C19.7809 25.9566 19.7109 25.8516 19.6633 25.7361C19.6158 25.6206 19.5916 25.4968 19.5921 25.3718V25.3649C19.5934 25.1137 19.6941 24.8733 19.8722 24.6961C20.0502 24.519 20.2912 24.4196 20.5424 24.4196H25.0015C25.172 24.1184 25.4201 23.8685 25.7201 23.6958C26.02 23.5232 26.3608 23.4343 26.7069 23.4382C27.0529 23.4422 27.3916 23.5389 27.6875 23.7183C27.9835 23.8977 28.2259 24.1532 28.3894 24.4582C28.3712 24.4525 28.352 24.4502 28.333 24.4513H27.1815C27.0924 24.4513 27.0069 24.4865 26.9436 24.5492C26.8803 24.6119 26.8444 24.6971 26.8436 24.7862V25.9337C26.8436 26.0234 26.8792 26.1094 26.9425 26.173C27.0059 26.2365 27.0918 26.2723 27.1815 26.2726H28.33C28.3523 26.2719 28.3745 26.2692 28.3964 26.2647C28.2343 26.5785 27.989 26.8418 27.6874 27.0256C27.3857 27.2095 27.0393 27.3069 26.6861 27.3071L26.689 27.3081ZM28.8175 21.5419H28.1942L27.1339 19.8078H27.1221V21.5419H26.5404V18.8496H27.1349L28.219 20.6174H28.2309V18.8496H28.8076L28.8175 21.5419Z" fill="white"/>
<path d="M24.9134 21.0834C25.3484 21.0834 25.607 20.7375 25.607 20.1915C25.607 19.6455 25.3494 19.3066 24.9134 19.3066C24.4774 19.3066 24.2197 19.6495 24.2197 20.1915C24.2197 20.7336 24.4793 21.0834 24.9134 21.0834Z" fill="white"/>
</g>
<defs>
<clipPath id="clip0_377_35473">
<rect width="14.2484" height="24" fill="white" transform="translate(16.876 12.9043)"/>
</clipPath>
</defs>
</svg>
